<svg xmlns="http://www.w3.org/2000/svg" viewBox="0 0 819 968" role="img" aria-labelledby="logoTitle logoDesc">
  <title id="logoTitle">Florilegium floral cross logo</title>
  <desc id="logoDesc">A purple stylized flower forming the left side of a cross.</desc>
  <path fill="#9B6BC7" fill-rule="evenodd" d="M 461 8 L 460 966 L 580 966 L 580 449 L 582 447 L 817 447 L 818 310 L 816 304 L 581 304 L 581 9 Z
    M 421 0 L 378 32 L 357 55 L 340 80 L 316 132 L 309 158 L 305 189 L 309 243 L 323 292 L 393 448 L 420 533 Z
    M 260 586 L 236 601 L 220 617 L 207 635 L 196 657 L 188 691 L 188 715 L 199 758 L 211 780 L 231 803 L 254 818 L 275 824 L 253 800 L 244 777 L 245 750 L 256 726 L 277 705 L 303 694 L 333 694 L 356 705 L 367 717 L 377 734 L 387 763 L 395 801 L 401 864 L 401 966 L 420 966 L 420 614 L 382 617 L 347 625 L 316 637 L 287 653 L 286 651 L 306 631 L 328 615 L 358 602 L 386 596 L 355 581 L 324 575 L 293 576 Z
    M 10 444 L 54 421 L 103 408 L 162 405 L 211 413 L 265 433 L 315 463 L 361 503 L 397 547 L 387 503 L 369 454 L 354 423 L 333 390 L 308 360 L 288 342 L 257 322 L 227 310 L 196 304 L 157 306 L 131 313 L 99 329 L 69 353 L 50 374 L 31 402 Z
    M 0 475 L 28 472 L 49 475 L 67 481 L 98 500 L 148 549 L 172 563 L 192 570 L 228 571 L 281 556 L 319 554 L 358 563 L 390 578 L 356 527 L 312 485 L 263 454 L 207 432 L 159 424 L 131 424 L 94 429 L 41 447 L 14 463 Z
    M 261 111 L 252 115 L 246 122 L 245 137 L 252 147 L 261 151 L 260 194 L 263 222 L 271 258 L 282 290 L 227 241 L 231 225 L 223 212 L 217 209 L 207 209 L 200 212 L 193 222 L 192 233 L 196 241 L 204 247 L 214 248 L 223 244 L 323 349 L 290 280 L 271 216 L 266 179 L 266 152 L 281 143 L 284 136 L 284 126 L 275 114 Z"/>
</svg>
