<svg xmlns="http://www.w3.org/2000/svg" viewBox="0 0 256 256" role="img" aria-labelledby="logoTitle logoDesc">
  <title id="logoTitle">Florilegium floral cross logo</title>
  <desc id="logoDesc">A stylized cross with gathered flower petals.</desc>
  <g fill="currentColor">
    <path d="M145 22h33v76h53v34h-53v102h-33V22Z"/>
    <path d="M134 20c-31 18-45 48-36 82l36 73V20Z"/>
    <path d="M45 115c35-61 87-44 101 28-33-36-67-46-101-28Z"/>
    <path d="M40 128c38-23 79-7 103 39-41-25-70-22-103-39Z"/>
    <path d="M87 206c-20-22-7-56 48-59-27 10-41 26-48 59Z"/>
    <path d="M132 234h-8v-74c-34 2-50 22-36 43-32-12-31-78 46-78l-2 109Z"/>
    <path d="M85 78c-6 0-11-5-11-11s5-11 11-11 11 5 11 11-5 11-11 11Z"/>
    <path d="M101 36c6 0 11 5 11 11s-5 11-11 11-11-5-11-11 5-11 11-11Z"/>
    <path d="M108 116 83 74l5-4 28 36-11-48 6-1c0 28 8 47 23 70l-26-11Z"/>
  </g>
</svg>
